<svg width="42" height="46" viewBox="0 0 42 46" fill="none" xmlns="http://www.w3.org/2000/svg">
<path fill-rule="evenodd" clip-rule="evenodd" d="M20.7206 0L0 12.1272L5.80207 15.5221L20.7206 6.7907L35.6392 15.5221L41.4413 12.1272L20.7206 0ZM28.2587 19.8406L20.7206 15.4288L13.1826 19.8406L20.7206 24.2513L28.2587 19.8406Z" fill="url(#paint0_linear)"/>
<path d="M20.7208 24.2511L41.4415 12.1271V33.6214L20.7208 45.9995V24.2511Z" fill="url(#paint1_linear)"/>
<path fill-rule="evenodd" clip-rule="evenodd" d="M13.1744 19.8358L20.7206 24.2512V45.9996L10.301 39.7752L13.1744 41.4821V31.5272L16.3184 33.4054V26.6746L13.1744 24.835V19.8358ZM8.73328 17.2372L0 12.1272V33.6216L5.79307 37.0822V27.1177L5.77605 27.1076V20.5061L5.79307 20.5161V15.5278L8.73328 17.2372Z" fill="#3952D2"/>
<defs>
<linearGradient id="paint0_linear" x1="-24.8913" y1="16.1402" x2="18.2575" y2="-20.8633" gradientUnits="userSpaceOnUse">
<stop offset="0.1347" stop-color="#0428E0"/>
<stop offset="0.758025" stop-color="#3952D2"/>
<stop offset="0.963542" stop-color="#3952D2"/>
</linearGradient>
<linearGradient id="paint1_linear" x1="21.6466" y1="39.5638" x2="35.7428" y2="42.4162" gradientUnits="userSpaceOnUse">
<stop stop-color="#5C72E8"/>
<stop offset="1" stop-color="#5068E2"/>
</linearGradient>
</defs>
</svg>
