<svg width="50" height="50" viewBox="0 0 50 50" fill="none" xmlns="http://www.w3.org/2000/svg">
<g filter="url(#filter0_i)">
<path fill-rule="evenodd" clip-rule="evenodd" d="M0 25C0 11.195 11.195 0 25 0C38.805 0 50 11.195 50 25C50 38.805 38.805 50 25 50C11.195 50 0 38.805 0 25ZM32.7596 27.4869L36.632 23.6139C39.4569 20.7897 39.4569 16.1932 36.632 13.3689C33.8074 10.5437 29.2112 10.5437 26.3866 13.3689L20.7983 18.9572C17.9734 21.7815 17.9734 26.378 20.7983 29.2023C21.2153 29.6197 21.6719 29.9735 22.1549 30.2675L25.1467 27.2754C24.5768 27.1392 24.0363 26.8516 23.5926 26.4083C22.3086 25.1243 22.3086 23.0349 23.5926 21.7513L29.1809 16.1629C30.4649 14.879 32.5543 14.879 33.8379 16.1629C35.1219 17.4469 35.1219 19.536 33.8379 20.8199L32.1962 22.462C32.8727 24.0543 33.0597 25.8054 32.7596 27.4869ZM13.3689 26.3862L17.2412 22.5136C16.9409 24.195 17.1279 25.9465 17.8047 27.5388L16.1626 29.1805C14.8787 30.4645 14.8787 32.5536 16.1626 33.8375C17.4466 35.1215 19.5357 35.1215 20.8196 33.8375L26.4083 28.2492C27.6922 26.9652 27.6922 24.8761 26.4083 23.5922C25.9643 23.1485 25.4238 22.8616 24.8542 22.725L27.8459 19.733C28.329 20.0269 28.7855 20.3808 29.2023 20.7982C32.0269 23.6224 32.0272 28.2186 29.2023 31.0432L23.6143 36.6316C20.7897 39.4564 16.1932 39.4564 13.3689 36.6316C10.5437 33.807 10.5437 29.2108 13.3689 26.3862Z" fill="#28CAE0"/>
</g>
<defs>
<filter id="filter0_i" x="0" y="0" width="50" height="52.4866" filterUnits="userSpaceOnUse" color-interpolation-filters="sRGB">
<feFlood flood-opacity="0" result="BackgroundImageFix"/>
<feBlend mode="normal" in="SourceGraphic" in2="BackgroundImageFix" result="shape"/>
<feColorMatrix in="SourceAlpha" type="matrix" values="0 0 0 0 0 0 0 0 0 0 0 0 0 0 0 0 0 0 127 0" result="hardAlpha"/>
<feOffset dy="2.48663"/>
<feGaussianBlur stdDeviation="2.48663"/>
<feComposite in2="hardAlpha" operator="arithmetic" k2="-1" k3="1"/>
<feColorMatrix type="matrix" values="0 0 0 0 0.161944 0 0 0 0 0.664767 0 0 0 0 0.733333 0 0 0 1 0"/>
<feBlend mode="normal" in2="shape" result="effect1_innerShadow"/>
</filter>
</defs>
</svg>
