<svg width="32" height="32" viewBox="0 0 32 32" fill="none" xmlns="http://www.w3.org/2000/svg">
<g filter="url(#filter0_i)">
<path fill-rule="evenodd" clip-rule="evenodd" d="M28.2525 13.4349C28.2525 13.5156 28.2364 13.5963 28.2052 13.6708C28.1741 13.7454 28.1281 13.8138 28.0706 13.8709C28.0131 13.928 27.9442 13.9737 27.869 14.0046C27.7939 14.0355 27.7126 14.0515 27.6313 14.0515H13.5763V16.4627C13.5763 16.5704 13.5474 16.6778 13.4931 16.771C13.4389 16.8642 13.3596 16.9429 13.2657 16.9967C13.1718 17.0506 13.0635 17.0794 12.9551 17.0794C12.8467 17.0794 12.7384 17.0507 12.6445 16.9968L7.47909 14.0368C7.47906 14.0368 7.47903 14.0368 7.479 14.0368L2.31048 11.0737C2.21659 11.0199 2.13735 10.9412 2.08315 10.8479C2.02895 10.7547 1.99997 10.6472 2 10.5395C2 10.4319 2.0292 10.3244 2.08331 10.2312C2.13754 10.138 2.21684 10.0593 2.31076 10.0055L7.47887 7.04581V7.04549L12.6439 4.08269C12.7378 4.02886 12.8461 4.00003 12.9545 4C13.063 4 13.1713 4.02876 13.2652 4.08256C13.3591 4.13636 13.4384 4.21505 13.4926 4.30826C13.5468 4.40147 13.5759 4.50895 13.5759 4.61659V7.02776H27.6309C27.7122 7.02776 27.7935 7.04384 27.8687 7.07473C27.9438 7.10563 28.0127 7.15131 28.0702 7.20839C28.1277 7.26549 28.1737 7.33389 28.2048 7.40847C28.2359 7.48303 28.2521 7.56371 28.2521 7.64443V13.4349L28.2525 13.4349Z" fill="url(#paint0_linear)"/>
<path fill-rule="evenodd" clip-rule="evenodd" d="M29.3328 22.098C29.3381 22.2103 29.3117 22.3238 29.2575 22.4224C29.2032 22.521 29.1212 22.6044 29.0232 22.6607L23.8578 25.6237C23.8577 25.6237 23.8577 25.624 23.8576 25.624L18.6922 28.584C18.5983 28.6378 18.49 28.6666 18.3816 28.6666C18.2732 28.6666 18.1649 28.638 18.071 28.584C17.9771 28.5302 17.8978 28.4515 17.8436 28.3583C17.7894 28.2651 17.7604 28.1576 17.7604 28.0499V25.6388H3.70227C3.62095 25.6388 3.53967 25.6227 3.46456 25.5918C3.38943 25.5609 3.32053 25.5152 3.26304 25.4582C3.20552 25.4011 3.15948 25.3327 3.12836 25.2581C3.09724 25.1835 3.08105 25.1028 3.08105 25.0221V19.2316C3.08105 19.1509 3.09721 19.0702 3.12836 18.9956C3.15948 18.9211 3.20552 18.8527 3.26304 18.7956C3.32053 18.7385 3.38943 18.6928 3.46456 18.6619C3.53967 18.631 3.62095 18.615 3.70227 18.615H17.7604V16.2038C17.7604 16.0961 17.7893 15.9887 17.8436 15.8954C17.8978 15.8023 17.9771 15.7236 18.071 15.6698C18.1649 15.6159 18.2732 15.5871 18.3816 15.5871C18.49 15.5871 18.5983 15.6159 18.6922 15.6697L23.8576 18.6297C23.8577 18.6297 23.8577 18.6297 23.8578 18.6297L29.0232 21.5928C29.1128 21.6442 29.1892 21.7183 29.243 21.8061C29.2968 21.894 29.328 21.9953 29.3328 22.098V22.098Z" fill="url(#paint1_linear)"/>
</g>
<defs>
<filter id="filter0_i" x="2" y="4" width="27.3335" height="25.7254" filterUnits="userSpaceOnUse" color-interpolation-filters="sRGB">
<feFlood flood-opacity="0" result="BackgroundImageFix"/>
<feBlend mode="normal" in="SourceGraphic" in2="BackgroundImageFix" result="shape"/>
<feColorMatrix in="SourceAlpha" type="matrix" values="0 0 0 0 0 0 0 0 0 0 0 0 0 0 0 0 0 0 127 0" result="hardAlpha"/>
<feOffset dy="1.05882"/>
<feGaussianBlur stdDeviation="1.05882"/>
<feComposite in2="hardAlpha" operator="arithmetic" k2="-1" k3="1"/>
<feColorMatrix type="matrix" values="0 0 0 0 0.164583 0 0 0 0 0.241837 0 0 0 0 0.658333 0 0 0 1 0"/>
<feBlend mode="normal" in2="shape" result="effect1_innerShadow"/>
</filter>
<linearGradient id="paint0_linear" x1="6.85492" y1="-1.76115" x2="21.9561" y2="8.01542" gradientUnits="userSpaceOnUse">
<stop stop-color="#586FE6"/>
<stop offset="1" stop-color="#3851D3"/>
</linearGradient>
<linearGradient id="paint1_linear" x1="7.93596" y1="9.82589" x2="23.0372" y2="19.6024" gradientUnits="userSpaceOnUse">
<stop stop-color="#586FE6"/>
<stop offset="1" stop-color="#3851D3"/>
</linearGradient>
</defs>
</svg>
