<svg width="48" height="48" viewBox="0 0 48 48" fill="none" xmlns="http://www.w3.org/2000/svg">
<g filter="url(#filter0_i)">
<path d="M23.6965 11.002C24.1814 11.002 24.5679 11.1745 24.8549 11.5229C25.1441 11.8774 25.2885 12.4049 25.2885 13.1067H27.8168C27.8168 11.9595 27.5265 11.0279 26.9411 10.3052C26.3583 9.58471 25.5509 9.15087 24.5171 9.00754V7.08972H23.1154V8.98218C22.0713 9.08582 21.236 9.45406 20.6029 10.0946C19.9731 10.7297 19.6572 11.5444 19.6572 12.5389C19.6572 13.1188 19.749 13.6116 19.9338 14.0295C20.1197 14.4517 20.376 14.8101 20.7024 15.1204C21.0331 15.4302 21.4273 15.7031 21.8876 15.9396C22.3501 16.1794 22.9 16.4137 23.5342 16.6601C24.1683 16.9015 24.6188 17.1645 24.8872 17.4495C25.1518 17.7367 25.2857 18.1192 25.2857 18.6016C25.2857 19.0702 25.1381 19.4395 24.8413 19.7129C24.5433 19.9858 24.1377 20.122 23.6227 20.122C23.0034 20.122 22.5305 19.9318 22.1992 19.5591C21.8679 19.1865 21.7061 18.6518 21.7061 17.9489H19.1777C19.1777 19.1551 19.5079 20.1198 20.1634 20.8474C20.8189 21.5751 21.7466 22.0017 22.9416 22.1313V23.8782H24.334V22.1219C25.4158 22.0106 26.2697 21.6429 26.888 21.0194C27.5063 20.3915 27.8146 19.5839 27.8146 18.5834C27.8146 18.0437 27.7337 17.5801 27.5703 17.1716C27.4068 16.7698 27.1712 16.4104 26.8623 16.0956C26.5529 15.7852 26.1724 15.4986 25.7242 15.2527C25.2759 15.0035 24.7024 14.7356 24.0043 14.4556C23.31 14.1689 22.8317 13.8928 22.5759 13.626C22.3173 13.3558 22.1905 12.9942 22.1905 12.5499C22.1905 12.0676 22.3195 11.6883 22.5895 11.4127C22.8481 11.1398 23.2182 11.002 23.6965 11.002Z" fill="url(#paint0_linear)"/>
<path d="M38.0948 23.8351C37.1529 23.8351 36.1246 24.388 35.3445 25.3169C34.6388 26.1526 33.7963 27.6867 33.7963 30.244V32.449C33.7963 32.906 33.429 33.2759 32.9763 33.2759C30.0379 33.2759 27.6463 35.6871 27.6463 38.6506C27.6463 39.1076 27.2789 39.4775 26.8262 39.4775C26.3747 39.4775 26.0062 39.1076 26.0062 38.6506C26.0062 35.0559 28.6991 32.0808 32.1563 31.6706V31.0709H13.9357V32.8194C13.9357 37.1556 16.0775 41.1859 19.6648 43.5888C19.8933 43.742 20.0311 44.0006 20.0311 44.2773V45.1615C20.0311 45.6268 20.4061 46 20.8637 46C21.3229 46 32.1815 46 32.6429 46C33.1053 46 33.4765 45.6235 33.4765 45.1615V44.2773C33.4765 44.0006 33.6143 43.742 33.8428 43.5888C37.4306 41.1859 39.5714 37.1562 39.5714 32.8194C39.5714 32.82 39.5599 27.1674 39.5599 25.3202C39.561 23.979 38.536 23.8351 38.0948 23.8351Z" fill="url(#paint1_linear)"/>
<path d="M41.722 2H5.27963C4.02283 2 3 3.02644 3 4.29874V27.1185C3 28.3859 4.02283 29.4167 5.27963 29.4167H32.1924C32.3635 26.839 33.2967 25.188 34.0948 24.2399C35.1838 22.9494 36.6806 22.1804 38.0932 22.1804C39.9491 22.1804 41.1994 23.4405 41.1994 25.3159C41.1994 26.1775 41.2016 27.8561 41.2049 29.4162H41.7204C42.9772 29.4162 44 28.3853 44 27.118V4.29819C44.0005 3.0314 42.9788 2 41.722 2ZM23.5003 27.0584C17.2933 27.0584 12.2453 21.9676 12.2453 15.7042C12.2453 9.44636 17.2922 4.35496 23.5003 4.35496C29.7072 4.35496 34.7552 9.44636 34.7552 15.7042C34.7563 21.9676 29.7072 27.0584 23.5003 27.0584Z" fill="url(#paint2_linear)"/>
</g>
<defs>
<filter id="filter0_i" x="3" y="2" width="41" height="45.5882" filterUnits="userSpaceOnUse" color-interpolation-filters="sRGB">
<feFlood flood-opacity="0" result="BackgroundImageFix"/>
<feBlend mode="normal" in="SourceGraphic" in2="BackgroundImageFix" result="shape"/>
<feColorMatrix in="SourceAlpha" type="matrix" values="0 0 0 0 0 0 0 0 0 0 0 0 0 0 0 0 0 0 127 0" result="hardAlpha"/>
<feOffset dy="1.58824"/>
<feGaussianBlur stdDeviation="1.58824"/>
<feComposite in2="hardAlpha" operator="arithmetic" k2="-1" k3="1"/>
<feColorMatrix type="matrix" values="0 0 0 0 0.164583 0 0 0 0 0.241837 0 0 0 0 0.658333 0 0 0 1 0"/>
<feBlend mode="normal" in2="shape" result="effect1_innerShadow"/>
</filter>
<linearGradient id="paint0_linear" x1="20.7754" y1="-0.305206" x2="27.6386" y2="0.833933" gradientUnits="userSpaceOnUse">
<stop stop-color="#586FE6"/>
<stop offset="1" stop-color="#3851D3"/>
</linearGradient>
<linearGradient id="paint1_linear" x1="18.6765" y1="14.072" x2="37.047" y2="20.9252" gradientUnits="userSpaceOnUse">
<stop stop-color="#586FE6"/>
<stop offset="1" stop-color="#3851D3"/>
</linearGradient>
<linearGradient id="paint2_linear" x1="10.5822" y1="-10.0764" x2="37.7343" y2="3.02036" gradientUnits="userSpaceOnUse">
<stop stop-color="#586FE6"/>
<stop offset="1" stop-color="#3851D3"/>
</linearGradient>
</defs>
</svg>
