<svg width="11" height="11" viewBox="0 0 11 11" fill="none" xmlns="http://www.w3.org/2000/svg">
<path d="M8.61973 2.69747C8.57887 2.6528 8.52228 2.62653 8.46243 2.62443C8.40258 2.62233 8.34437 2.64458 8.30059 2.68628C8.25682 2.72798 8.23107 2.78571 8.22901 2.84679C8.22695 2.90786 8.24876 2.96726 8.28962 3.01193L8.81606 3.58743V4.7533C8.81606 4.88062 8.85335 5.00504 8.92315 5.11058C8.99296 5.21612 9.09208 5.29796 9.20779 5.3456L9.70968 5.5522V9.1443C9.70943 9.34665 9.63049 9.54062 9.49018 9.68361C9.34988 9.82661 9.15969 9.90692 8.96139 9.90692C8.76309 9.90692 8.5729 9.82661 8.4326 9.68361C8.29229 9.54062 8.21335 9.34665 8.2131 9.1443V6.96881C8.21274 6.64777 8.08759 6.33998 7.86512 6.11297C7.64265 5.88596 7.34103 5.75827 7.02641 5.75789H6.42107V1.85558C6.42107 1.82503 6.40918 1.79572 6.38801 1.77412C6.36683 1.75251 6.33812 1.74037 6.30817 1.74037H0.804739C0.774795 1.74037 0.746078 1.75251 0.724904 1.77412C0.703731 1.79572 0.691836 1.82503 0.691836 1.85558V9.62104H0.0918851C0.0675158 9.62104 0.0441446 9.63092 0.0269129 9.6485C0.00968115 9.66608 2.99431e-07 9.68993 0 9.7148V10.2749C2.99431e-07 10.2998 0.00968115 10.3236 0.0269129 10.3412C0.0441446 10.3588 0.0675158 10.3687 0.0918851 10.3687H7.02102C7.04539 10.3687 7.06876 10.3588 7.08599 10.3412C7.10322 10.3236 7.1129 10.2998 7.1129 10.2749V9.7148C7.1129 9.68993 7.10322 9.66608 7.08599 9.6485C7.06876 9.63092 7.04539 9.62104 7.02102 9.62104H6.42107V6.21872H7.02641C7.22129 6.21896 7.40813 6.29806 7.54594 6.43867C7.68374 6.57929 7.76126 6.76994 7.76149 6.96881V9.1443C7.7618 9.46883 7.88835 9.77995 8.11334 10.0093C8.33833 10.2387 8.64336 10.3675 8.96139 10.3675C9.27942 10.3675 9.58444 10.2387 9.80944 10.0093C10.0344 9.77995 10.161 9.46883 10.1613 9.1443V4.96483C10.1618 4.59063 10.0226 4.23029 9.77197 3.9571L8.61973 2.69747ZM1.25638 2.57135C1.25638 2.55139 1.26023 2.53163 1.26771 2.51319C1.2752 2.49474 1.28617 2.47799 1.3 2.46387C1.31383 2.44976 1.33025 2.43856 1.34833 2.43092C1.3664 2.42329 1.38577 2.41935 1.40533 2.41935H5.70763C5.7272 2.41935 5.74657 2.42329 5.76464 2.43092C5.78271 2.43856 5.79913 2.44976 5.81296 2.46387C5.82679 2.47799 5.83777 2.49474 5.84525 2.51319C5.85274 2.53163 5.85659 2.55139 5.85659 2.57135V4.66466C5.85658 4.70497 5.84089 4.74363 5.81296 4.77214C5.78502 4.80064 5.74714 4.81665 5.70763 4.81666H1.40533C1.36582 4.81665 1.32794 4.80064 1.30001 4.77213C1.27207 4.74363 1.25638 4.70497 1.25638 4.66466V2.57135ZM3.55069 8.76432C3.35528 8.76258 3.16846 8.68215 3.03089 8.54054C2.89331 8.39893 2.81613 8.2076 2.81613 8.0082C2.81613 7.42853 3.31087 7.09821 3.50646 6.45917C3.50979 6.44813 3.51649 6.43847 3.52559 6.4316C3.53469 6.42473 3.5457 6.421 3.55702 6.42098C3.56834 6.42095 3.57937 6.42461 3.5885 6.43144C3.59763 6.43827 3.60438 6.4479 3.60776 6.45892C3.78829 7.04905 4.22397 7.37592 4.28979 7.87885C4.30586 7.98786 4.29884 8.09913 4.26918 8.20514C4.23952 8.31115 4.18793 8.40943 4.11787 8.49336C4.04782 8.57728 3.96094 8.6449 3.86309 8.69164C3.76525 8.73838 3.65871 8.76317 3.55068 8.76432H3.55069ZM0.17296 1.04912V0.115207C0.17296 0.0846525 0.184855 0.0553491 0.206028 0.0337435C0.227202 0.0121379 0.255919 0 0.285863 0H6.82704C6.85698 0 6.8857 0.0121379 6.90688 0.0337435C6.92805 0.0553491 6.93994 0.0846525 6.93994 0.115207V1.04912C6.93994 1.07968 6.92805 1.10898 6.90688 1.13059C6.8857 1.15219 6.85698 1.16433 6.82704 1.16433H0.285862C0.255918 1.16433 0.227201 1.15219 0.206027 1.13059C0.184854 1.10898 0.172959 1.07968 0.172959 1.04912H0.17296Z" fill="#181C30" fill-opacity="0.6"/>
</svg>
