<svg width="24" height="24" viewBox="0 0 24 24" fill="none" xmlns="http://www.w3.org/2000/svg">
<path fill-rule="evenodd" clip-rule="evenodd" d="M17.0154 5.51216L17.0388 5.68529L16.7782 5.73921L16.7434 6.10704H17.055L17.4704 6.0669L17.6835 5.81409L17.456 5.72543L17.3317 5.58285L17.1444 5.28092L17.055 4.85498L16.7032 4.92507L16.6047 5.07724V5.24557L16.7734 5.36L17.0154 5.51216Z" fill="#D8D8D8"/>
<path fill-rule="evenodd" clip-rule="evenodd" d="M16.7175 5.65509L16.7361 5.42325L16.5296 5.33398L16.2414 5.39988L16.0277 5.74375V5.96361H16.2762L16.7175 5.65509Z" fill="#D8D8D8"/>
<path fill-rule="evenodd" clip-rule="evenodd" d="M10.787 6.63521L10.7234 6.79696H10.4166V6.95571H10.4893C10.4893 6.95571 10.4935 6.98866 10.4983 7.03299L10.6886 7.01682L10.8056 6.94433L10.8362 6.79696L10.9887 6.78498L11.047 6.66097L10.9089 6.63281L10.787 6.63521Z" fill="#D8D8D8"/>
<path fill-rule="evenodd" clip-rule="evenodd" d="M9.99407 6.92088L9.98267 7.07784L10.2054 7.05867L10.2288 6.90231L10.0949 6.79688L9.99407 6.92088Z" fill="url(#paint0_linear)"/>
<path fill-rule="evenodd" clip-rule="evenodd" d="M23.3494 11.8612C23.347 11.5197 23.3278 11.1801 23.2953 10.8482C23.1873 9.73869 22.9225 8.67414 22.5239 7.6749C22.4933 7.60241 22.4651 7.52513 22.4345 7.45264C21.9044 6.20058 21.1564 5.06055 20.2445 4.07568C20.1857 4.01218 20.1245 3.94928 20.0638 3.88578C19.8903 3.70845 19.7144 3.53293 19.5289 3.36639C17.4536 1.48051 14.6958 0.329102 11.6756 0.329102C8.62957 0.329102 5.8507 1.50148 3.7706 3.41551C3.28554 3.86242 2.8395 4.34946 2.43669 4.86885C0.910082 6.83919 0 9.30556 0 11.9804C0 18.4066 5.23897 23.6317 11.6756 23.6317C16.2062 23.6317 20.1365 21.0437 22.0737 17.2738C22.4861 16.4686 22.8097 15.6102 23.0252 14.7092C23.0816 14.4797 23.1284 14.2503 23.1711 14.0166C23.2881 13.3565 23.3512 12.6753 23.3512 11.9804C23.3512 11.9409 23.3494 11.9007 23.3494 11.8612ZM21.1516 7.20431L21.22 7.12703C21.3089 7.30016 21.3911 7.47569 21.471 7.65122L21.3605 7.64882L21.1516 7.67698V7.20431ZM19.4635 5.17078L19.4659 4.64899C19.6484 4.84309 19.8266 5.04438 19.9959 5.25046L19.7846 5.56377L19.0504 5.55718L19.0036 5.40502L19.4635 5.17078ZM5.37941 3.87635V3.85777H5.61414L5.63275 3.7781H6.01695V3.94404L5.90709 4.08902H5.37941V3.87635ZM5.75461 4.39595C5.75461 4.39595 5.98694 4.35641 6.00795 4.35641C6.02656 4.35641 6.00795 4.59004 6.00795 4.59004L5.48027 4.62299L5.37941 4.50378L5.75461 4.39595ZM21.8954 9.02285H21.0418L20.5213 8.63645L19.9726 8.68797V9.02285H19.7985L19.6112 8.88925L18.6639 8.64843V8.03498L17.4609 8.12903L17.0881 8.32972H16.6096L16.3749 8.30396L15.7956 8.62746V9.23072L14.6118 10.0826L14.7102 10.448H14.9516L14.8885 10.7943L14.7198 10.8572L14.7102 11.763L15.7326 12.9282H16.1804L16.2062 12.8557H17.0082L17.2382 12.643H17.6932L17.9417 12.891L18.6195 12.9635L18.5301 13.8597L19.2829 15.1843L18.8866 15.9403L18.9125 16.2956L19.224 16.6047V17.4613L19.6322 18.0089V18.72H19.9864C18.0216 21.1306 15.0266 22.675 11.6756 22.675C5.7661 22.675 0.961753 17.8777 0.961753 11.9805C0.961753 10.4972 1.26611 9.08096 1.8148 7.79655V7.46167L2.19961 6.99859C2.33348 6.74818 2.47395 6.50256 2.62643 6.26353L2.64504 6.45763L2.19961 6.99859C2.06153 7.25799 1.93247 7.52278 1.81721 7.79655V8.40461L2.26084 8.61788V9.46496L2.68767 10.1904L3.03705 10.2444L3.08147 9.99634L2.67086 9.36432L2.59102 8.75147H2.83054L2.9314 9.38289L3.52451 10.2444L3.36963 10.5229L3.74723 11.0986L4.68312 11.3275V11.1777L5.05592 11.2316L5.0205 11.4964L5.31586 11.5497L5.7685 11.6737L6.40904 12.404L7.22967 12.4651L7.30951 13.1319L6.74882 13.5225L6.723 14.1173L6.64076 14.4822L7.45239 15.4952L7.51602 15.8421C7.51602 15.8421 7.80898 15.9211 7.8438 15.9211C7.87922 15.9211 8.50294 16.3914 8.50294 16.3914V18.224L8.72566 18.2851L8.57318 19.1298L8.94838 19.6282L8.88054 20.4633L9.37281 21.3319L10.0085 21.8837L10.6461 21.8957L10.7073 21.692L10.2409 21.2966L10.2667 21.1025L10.3507 20.8611L10.3675 20.6178L10.0506 20.6089L9.89148 20.41L10.1538 20.1548L10.1892 19.9649L9.89568 19.881L9.91249 19.7031L10.3321 19.6396L10.9697 19.3358L11.1834 18.9446L11.8515 18.0904L11.699 17.4236L11.9031 17.0678L12.5179 17.0869L12.9327 16.7616L13.0666 15.4742L13.5234 14.8919L13.6056 14.5193L13.186 14.3839L12.9093 13.9322L11.9668 13.9226L11.2188 13.6399L11.1834 13.1061L10.9324 12.6712L10.2571 12.6616L9.86567 12.0482L9.51808 11.8774L9.49947 12.0649L8.86854 12.1021L8.63682 11.7816L7.97767 11.6486L7.43378 12.2728L6.58013 12.1302L6.51649 11.1687L5.89276 11.0609L6.1437 10.5906L6.07106 10.3192L5.25282 10.8668L4.73715 10.8033L4.55405 10.4007L4.66451 9.98675L4.95026 9.46256L5.60461 9.13248H6.86828L6.86408 9.51648L7.31852 9.72915L7.2837 9.07197L7.60967 8.74188L8.27062 8.30876L8.31745 8.00443L8.9766 7.31909L9.67537 6.93269L9.61473 6.88117L10.0884 6.43666L10.2619 6.48159L10.3417 6.58164L10.5218 6.38275L10.5668 6.36178L10.3693 6.33362L10.1682 6.26832V6.07662L10.2757 5.98976H10.508L10.6161 6.03648L10.7097 6.22399L10.822 6.20542V6.18865L10.855 6.20063L11.1834 6.15151L11.2302 5.98976L11.4181 6.03648V6.21201L11.244 6.33183L11.2698 6.52113L11.8635 6.70385L11.8659 6.71044L12.0016 6.69906L12.0112 6.44146L11.54 6.22879L11.5141 6.10478L11.9055 5.97119L11.9218 5.59677L11.5117 5.34875L11.4859 4.71913L10.9252 4.9929H10.7211L10.7727 4.51305L10.0109 4.33333L9.69398 4.57176V5.29963L9.12668 5.47755L8.89915 5.95261L8.65062 5.99215V5.38589L8.11814 5.31101L7.851 5.13788L7.74294 4.74489L8.69745 4.18776L9.1669 4.04518L9.21372 4.35909L9.47366 4.34711L9.49227 4.18776L9.76481 4.15061L9.76902 4.0943L9.65195 4.04518L9.62614 3.87923L9.96172 3.85108L10.1634 3.64021L10.1748 3.62643H10.1772L10.2385 3.56293L10.942 3.47426L11.2536 3.73845L10.4378 4.17158L11.4739 4.4172L11.6102 4.07094H12.0628L12.2243 3.76901L11.9031 3.68693V3.30592L10.897 2.86141L10.203 2.94049L9.81164 3.14657L9.83745 3.6426L9.42683 3.5821L9.3638 3.30592L9.75761 2.95008L9.04443 2.91473L8.84092 2.97823L8.75148 3.21666L9.01862 3.26159L8.96519 3.52818L8.51015 3.55634L8.43991 3.73186L7.78076 3.75043C7.78076 3.75043 7.76455 3.37841 7.73634 3.37841C7.71053 3.37841 8.25201 3.36883 8.25201 3.36883L8.64582 2.98542L8.43031 2.87999L8.14636 3.15616L7.67271 3.128L7.38936 2.73741H6.78424L6.1509 3.20768H6.73021L6.78424 3.37841L6.63416 3.5162L7.2741 3.53537L7.37255 3.76661L6.65036 3.73845L6.61555 3.56113L6.16291 3.46228L5.92098 3.32929L5.38189 3.33408C7.14983 2.04908 9.32358 1.28886 11.6756 1.28886C14.3867 1.28886 16.8606 2.29949 18.7504 3.95891L18.6237 4.18536L18.129 4.38006L17.9207 4.60471L17.9676 4.8689L18.2227 4.90424L18.3776 5.28765L18.8164 5.10972L18.889 5.62253H18.7576L18.3968 5.56861L17.9958 5.63631L17.6086 6.18386L17.0527 6.27072L16.9728 6.74339L17.2076 6.7997L17.1397 7.10403L16.5886 6.9938L16.0844 7.10403L15.9787 7.382L16.0658 7.97208L16.3611 8.10986L16.8582 8.10747L17.1937 8.07752L17.2964 7.81033L17.8223 7.13158L18.1669 7.20227L18.5066 6.89555L18.5703 7.13398L19.4071 7.6983L19.3039 7.83369L18.9263 7.81512L19.0721 8.01881L19.3039 8.07033L19.5758 7.9577L19.5716 7.63001L19.6911 7.5695L19.595 7.46646L19.0367 7.15734L18.889 6.74339H19.3531L19.5008 6.89076L19.9018 7.23462L19.9186 7.64918L20.331 8.0889L20.4859 7.48743L20.7722 7.33048L20.8257 7.82471L21.1072 8.13083L21.6655 8.12185C21.7736 8.39802 21.8696 8.68078 21.9537 8.96893L21.8954 9.02285ZM6.36882 5.62216L6.64797 5.48857L6.90131 5.54967L6.81486 5.88874L6.54052 5.97561L6.36882 5.62216ZM7.85826 6.42277V6.64263H7.21592L6.97639 6.57733L7.03762 6.42277L7.34439 6.29637H7.76461V6.42277H7.85826ZM8.15116 6.72953V6.9422L7.99147 7.04524L7.79037 7.08238V6.72953H8.15116ZM7.97037 6.64267V6.38986L8.19129 6.58875L7.97037 6.64267ZM8.07119 7.15538V7.36325L7.91871 7.51542H7.57653L7.63056 7.28358L7.79204 7.2698L7.82506 7.19012L8.07119 7.15538ZM7.22226 6.72953H7.57644L7.1238 7.36335L6.9365 7.2627L6.97613 6.99612L7.22226 6.72953ZM8.67159 7.08213V7.2906H8.33181L8.23816 7.15521V6.96291H8.26637L8.67159 7.08213ZM8.35759 6.79703L8.45604 6.69639L8.61993 6.79703L8.48906 6.90486L8.35759 6.79703ZM22.0688 9.56061L22.1036 9.52347C22.118 9.58158 22.1318 9.64268 22.1462 9.70559L22.0688 9.56061Z" fill="url(#paint1_linear)"/>
<path fill-rule="evenodd" clip-rule="evenodd" d="M1.8147 7.46113V7.79601C1.93236 7.52223 2.06143 7.25744 2.1995 6.99805L1.8147 7.46113Z" fill="black"/>
<defs>
<linearGradient id="paint0_linear" x1="10.2533" y1="6.15368" x2="11.3348" y2="6.50324" gradientUnits="userSpaceOnUse">
<stop stop-color="#586FE6"/>
<stop offset="1" stop-color="#3851D3"/>
</linearGradient>
<linearGradient id="paint1_linear" x1="4.31836" y1="-9.93514" x2="21.5774" y2="-4.35669" gradientUnits="userSpaceOnUse">
<stop stop-color="#586FE6"/>
<stop offset="1" stop-color="#3851D3"/>
</linearGradient>
</defs>
</svg>
