<svg width="1440" height="451" viewBox="0 0 1440 451" fill="none" xmlns="http://www.w3.org/2000/svg">
<path d="M1514 0V413.5C1109.63 372.5 203.912 545.499 -75 372.5V0H1514Z" fill="url(#paint0_linear)"/>
<path d="M1514 0V413.5C1109.63 372.5 203.912 545.499 -75 372.5V0H1514Z" fill="url(#paint1_linear)"/>
<path d="M1333.36 301.094L1333.36 315.253L1314.33 307.511L1314.33 293.353L1333.36 301.094Z" fill="#99DAE3"/>
<path d="M1314.33 293.353L1314.33 307.511L1304.51 322.656L1304.51 308.497L1314.33 293.353Z" fill="#28CAE0"/>
<path d="M1314.33 307.511L1333.36 315.253L1323.54 330.397L1304.51 322.656L1314.33 307.511Z" fill="#61D2E2"/>
<path d="M355.122 62.7306L347.046 70.6552L340.81 55.4678L348.886 47.5432L355.122 62.7306Z" fill="#F6A5AB"/>
<path d="M348.886 47.5432L340.81 55.4678L326.674 58.3417L334.75 50.4171L348.886 47.5432Z" fill="#FF617F"/>
<path d="M340.81 55.4677L347.046 70.6551L332.91 73.529L326.674 58.3416L340.81 55.4677Z" fill="#FF7B84"/>
<path d="M1117.82 124.91L1110.79 131.805L1105.37 118.59L1112.4 111.694L1117.82 124.91Z" fill="#FF617F"/>
<path d="M1112.4 111.694L1105.37 118.59L1093.07 121.091L1100.09 114.195L1112.4 111.694Z" fill="#FF7B84"/>
<path d="M1105.37 118.59L1110.79 131.805L1098.49 134.306L1093.07 121.09L1105.37 118.59Z" fill="#F6A5AB"/>
<path d="M1418.97 431.63L1446.31 434.912L1430.3 381.555L1403.68 378.97L1418.97 431.63Z" fill="#61D2E2"/>
<path d="M1403.67 378.971L1430.3 381.556L1460.66 365.843L1434.03 363.258L1403.67 378.971Z" fill="#99DAE3"/>
<path d="M1430.3 381.555L1446.31 434.912L1476.67 419.199L1460.66 365.843L1430.3 381.555Z" fill="#28CAE0"/>
<path d="M1511.84 71.4875L1490.57 35.1069L1423.2 124.294L1444.47 160.675L1511.84 71.4875Z" fill="#485BC2"/>
<path d="M1444.47 160.674L1423.2 124.294L1375.12 100.035L1396.39 136.416L1444.47 160.674Z" fill="#7184E7"/>
<path d="M1423.2 124.294L1491.5 35.5085L1443.42 11.25L1375.12 100.036L1423.2 124.294Z" fill="#3B50BD"/>
<path d="M87.1614 450.798L111.61 447.031L77.4489 391.016L53 394.784L87.1614 450.798Z" fill="#FF617F"/>
<path d="M53 394.784L77.4489 391.016L101.06 370L76.6116 373.768L53 394.784Z" fill="#F6A5AB"/>
<path d="M77.449 391.016L111.192 447.449L134.803 426.433L101.061 370L77.449 391.016Z" fill="#FF7B84"/>
<path d="M24 251.9L27.2039 260.301L36.7444 251.401L33.5405 243L24 251.9Z" fill="#28CAE0"/>
<path d="M33.5406 243L36.7446 251.401L46.0003 258.165L42.7964 249.764L33.5406 243Z" fill="#99DAE3"/>
<path d="M36.744 251.401L27.2035 260.301L36.4592 267.065L45.9997 258.165L36.744 251.401Z" fill="#61D2E2"/>
<path d="M-9.21223 148.302L2.64424 163.215L17.9924 130.622L6.13593 115.709L-9.21223 148.302Z" fill="#7184E7"/>
<path d="M6.13598 115.709L17.9924 130.622L41.999 133.976L30.1425 119.063L6.13598 115.709Z" fill="#3B50BD"/>
<path d="M17.9925 130.622L2.64439 163.215L26.651 166.568L41.9991 133.976L17.9925 130.622Z" fill="#485BC2"/>
<defs>
<linearGradient id="paint0_linear" x1="218.856" y1="-303.488" x2="1053.92" y2="317.69" gradientUnits="userSpaceOnUse">
<stop stop-color="#586FE6"/>
<stop offset="1" stop-color="#3851D3"/>
</linearGradient>
<linearGradient id="paint1_linear" x1="795" y1="507.5" x2="813.5" y2="719.5" gradientUnits="userSpaceOnUse">
<stop stop-color="#3851D3"/>
<stop offset="1" stop-color="#2A3EA7"/>
</linearGradient>
</defs>
</svg>
