<svg width="110" height="50" viewBox="0 0 110 50" fill="none" xmlns="http://www.w3.org/2000/svg">
<path fill-rule="evenodd" clip-rule="evenodd" d="M22.5226 0L0.00012207 13.1817L6.30658 16.8718L22.5226 7.38102L38.7386 16.8718L45.045 13.1817L22.5226 0ZM30.7162 21.5658L22.5226 16.7703L14.3289 21.5658L22.5226 26.3601L30.7162 21.5658Z" fill="url(#paint0_linear)"/>
<path d="M22.5227 26.3599L45.0452 13.1816V36.5451L22.5227 49.9995V26.3599Z" fill="url(#paint1_linear)"/>
<path fill-rule="evenodd" clip-rule="evenodd" d="M14.3192 21.5603L22.5225 26.3602V49.9998L11.3384 43.3186L14.3192 45.0894V34.2682L17.7375 36.3102V28.9942L14.3192 26.9941V21.5603ZM9.61725 18.8091L0 13.1819V36.5453L6.29602 40.3064V29.4753L6.2784 29.4648V22.2893L6.29602 22.2996V16.8782L9.61725 18.8091Z" fill="#3952D2"/>
<path d="M52.7818 12.5959H62.6895V15.6307H57.1555V22.6523H61.6779V25.7168H57.1555V36.6956H52.7818V12.5959ZM68.4045 23.9019L63.7036 12.5959H67.8095L70.9335 20.0936L73.6708 12.5959H77.4494L72.8377 24.735L77.8064 36.6956H73.7303L70.3087 28.5731L67.3334 36.6956H63.5549L68.4045 23.9019ZM85.632 37.0228C83.5692 37.0228 82.0518 36.517 81.0799 35.5054C80.1278 34.474 79.6319 32.9467 79.5922 30.9235V30.5665H83.5493C83.5493 31.7169 83.6882 32.5401 83.9659 33.036C84.2634 33.5319 84.8287 33.7798 85.6618 33.7798C86.4354 33.7798 86.9709 33.4128 87.2684 32.6789C87.5858 31.9252 87.7445 30.6359 87.7445 28.8111V25.9548C87.4668 26.4309 87.0403 26.7978 86.4651 27.0557C85.8899 27.3135 85.2056 27.4425 84.4122 27.4425C81.0402 27.4425 79.3542 25.0821 79.3542 20.3613C79.3542 17.8423 79.8501 15.8786 80.8419 14.4703C81.8534 13.0422 83.4502 12.3281 85.632 12.3281C87.7742 12.3281 89.361 13.0323 90.3925 14.4406C91.4239 15.829 91.9396 17.7134 91.9396 20.0936V28.6326C91.9396 31.2508 91.4636 33.3038 90.5115 34.7914C89.5792 36.279 87.9527 37.0228 85.632 37.0228ZM85.6618 24.3184C86.5544 24.3184 87.2486 23.8821 87.7445 23.0093V19.2605C87.7445 18.0902 87.5858 17.1679 87.2684 16.4935C86.9709 15.8191 86.4254 15.4819 85.632 15.4819C84.8386 15.4819 84.2832 15.8489 83.9659 16.5828C83.6684 17.2968 83.5196 18.3481 83.5196 19.7365C83.5196 20.8275 83.5493 21.6804 83.6089 22.2953C83.6882 22.8903 83.8766 23.3763 84.1742 23.7531C84.4915 24.13 84.9874 24.3184 85.6618 24.3184ZM101.148 37.0228C99.0847 37.0228 97.5673 36.517 96.5954 35.5054C95.6433 34.474 95.1475 32.9467 95.1078 30.9235V30.5665H99.0649C99.0649 31.7169 99.2037 32.5401 99.4814 33.036C99.779 33.5319 100.344 33.7798 101.177 33.7798C101.951 33.7798 102.486 33.4128 102.784 32.6789C103.101 31.9252 103.26 30.6359 103.26 28.8111V25.9548C102.982 26.4309 102.556 26.7978 101.981 27.0557C101.405 27.3135 100.721 27.4425 99.9277 27.4425C96.5558 27.4425 94.8698 25.0821 94.8698 20.3613C94.8698 17.8423 95.3656 15.8786 96.3574 14.4703C97.369 13.0422 98.9657 12.3281 101.148 12.3281C103.29 12.3281 104.877 13.0323 105.908 14.4406C106.939 15.829 107.455 17.7134 107.455 20.0936V28.6326C107.455 31.2508 106.979 33.3038 106.027 34.7914C105.095 36.279 103.468 37.0228 101.148 37.0228ZM101.177 24.3184C102.07 24.3184 102.764 23.8821 103.26 23.0093V19.2605C103.26 18.0902 103.101 17.1679 102.784 16.4935C102.486 15.8191 101.941 15.4819 101.148 15.4819C100.354 15.4819 99.7988 15.8489 99.4814 16.5828C99.1839 17.2968 99.0351 18.3481 99.0351 19.7365C99.0351 20.8275 99.0649 21.6804 99.1244 22.2953C99.2037 22.8903 99.3922 23.3763 99.6897 23.7531C100.007 24.13 100.503 24.3184 101.177 24.3184Z" fill="#1D2433"/>
<defs>
<linearGradient id="paint0_linear" x1="-27.0556" y1="17.5437" x2="19.8452" y2="-22.6775" gradientUnits="userSpaceOnUse">
<stop offset="0.1347" stop-color="#0428E0"/>
<stop offset="0.758025" stop-color="#3952D2"/>
<stop offset="0.963542" stop-color="#3952D2"/>
</linearGradient>
<linearGradient id="paint1_linear" x1="23.529" y1="43.0041" x2="38.8509" y2="46.1047" gradientUnits="userSpaceOnUse">
<stop stop-color="#5C72E8"/>
<stop offset="1" stop-color="#5068E2"/>
</linearGradient>
</defs>
</svg>
